<svg xmlns="http://www.w3.org/2000/svg" width="476.344" height="439.75" viewBox="0 0 476.344 439.75">
  <g id="Grupo_6" data-name="Grupo 6" transform="translate(-33 -17.39)">
    <g id="Grupo_1" data-name="Grupo 1" transform="translate(-125.734 -141.707)">
      <path id="martini-glass-citrus-light" d="M245.019,145.214a63.92,63.92,0,0,1-19.91-3.177L213.2,156.956A81.706,81.706,0,1,0,171.845,45.379H192.89a63.529,63.529,0,1,1,52.129,99.835ZM9.047,72.607A8.95,8.95,0,0,0,.879,77.769a9.165,9.165,0,0,0,1.078,9.586L108.881,221v87.582H63.5a9.076,9.076,0,1,0,0,18.152h108.91a9.076,9.076,0,1,0,0-18.152H127.033V221L233.958,87.355a9.094,9.094,0,0,0-7.091-14.748ZM207.979,90.759,117.957,203.3,27.936,90.759Z" transform="translate(196.848 469.253) rotate(-68)" fill="none"/>
      <path id="martini-glass-citrus-light_-_Contorno" data-name="martini-glass-citrus-light - Contorno" d="M250.55,0a87.235,87.235,0,1,1-33.97,167.569l-6.721-2.836,18.855-23.614,3.643,1.192a58.4,58.4,0,0,0,18.192,2.9,58.007,58.007,0,1,0-47.6-91.154L201.3,56.427H168.472l3.955-7.977A87.181,87.181,0,0,1,250.55,0Zm.057,163.422A76.2,76.2,0,1,0,186.9,45.379h8.71a69.019,69.019,0,1,1,37.024,108.534l-4.813,6.027A75.908,75.908,0,0,0,250.607,163.422ZM14.578,72.607H232.4a14.618,14.618,0,0,1,11.422,23.7l-.018.022L138.088,228.459v80.12h39.856a14.6,14.6,0,1,1,0,29.2H69.033a14.6,14.6,0,1,1,0-29.2h39.855v-80.12L3.156,96.308a14.618,14.618,0,0,1,11.421-23.7ZM235.166,89.441a3.532,3.532,0,0,0,.443-3.714,3.591,3.591,0,0,0-3.21-2.072H14.578a3.425,3.425,0,0,0-3.158,1.964,3.656,3.656,0,0,0,.39,3.82L119.936,224.583v95.044h-50.9a3.552,3.552,0,1,0,0,7.1h108.91a3.552,3.552,0,1,0,0-7.1h-50.9V224.583ZM21.975,90.759H225L123.488,217.666Zm180.042,11.048H44.959l78.529,98.174Z" transform="translate(189.655 472.312) rotate(-68)" fill="#fb8c00"/>
      <path id="F_X_-_Contorno" data-name="F    X - Contorno" d="M1.734-23.953h99V2.63H29.958V30.077H92.187V56.228H29.958v57.655H1.734ZM89.684-12.905h-76.9V102.836H18.91V45.181H81.139V41.124H18.91V-8.417H89.684Z" transform="translate(157 215.917)" fill="#fb8c00"/>
      <path id="F_X_-_Contorno-2" data-name="F    X - Contorno" d="M56.782-23.953H91.738L121.131,20.1l29.158-44.05h33.933L137.865,43.373l48.412,70.51h-34.8L120.223,66.207,88.1,113.883H53.847l49.273-70.538ZM85.828-12.905H77.8l38.763,56.3L75.041,102.836H82.22l38.13-56.586,37.1,56.586h7.842L124.458,43.364,163.2-12.905h-6.977L121.168,40.056Z" transform="translate(409.215 218.006)" fill="#fb8c00"/>
    </g>
    <g id="Grupo_5" data-name="Grupo 5" transform="translate(98.784 -131.059) rotate(22)">
      <text id="B_" data-name="B " transform="translate(393.536 309.193)" fill="#f78c01" font-size="82" font-family="ALIENCYBERNETICS, ALIEN CYBERNETICS"><tspan x="0" y="0">B </tspan></text>
      <text id="_R" data-name=" R" transform="translate(447.821 307.753)" fill="#f78c01" font-size="80" font-family="ALIENCYBERNETICS, ALIEN CYBERNETICS"><tspan x="0" y="0" xml:space="preserve"> R</tspan></text>
    </g>
  </g>
</svg>
